<svg xmlns="http://www.w3.org/2000/svg" viewBox="0 0 242.56 60.02"><defs><style>.cls-1{fill:#d0353c;}.cls-2{fill:#f94e4e;}.cls-3{fill:#fff;}</style></defs><g id="Layer_2" data-name="Layer 2"><g id="Layer_1-2" data-name="Layer 1"><polygon class="cls-1" points="196.1 55.08 205.16 55.08 208.22 48.34 199.04 48.34 196.1 55.08"></polygon><path class="cls-2" d="M101,14.6,93.15,34.41h-.44L85,14.6H75.5L88.77,45.71H97L110.35,14.6Z"></path><path class="cls-2" d="M138.26,23.43a14.55,14.55,0,0,0-3-5.18,13.8,13.8,0,0,0-4.88-3.43,17.06,17.06,0,0,0-6.67-1.24,15.63,15.63,0,0,0-6.51,1.34,16.27,16.27,0,0,0-5.11,3.59,16.51,16.51,0,0,0-3.37,5.27,17,17,0,0,0-1.2,6.38,17.21,17.21,0,0,0,1.24,6.63,15.66,15.66,0,0,0,8.7,8.7A17.23,17.23,0,0,0,124,46.72,16.19,16.19,0,0,0,133,44.38a17.42,17.42,0,0,0,5.81-6.16l-6.93-3.43a9.34,9.34,0,0,1-3,3.27,8.06,8.06,0,0,1-4.72,1.3A10.32,10.32,0,0,1,121.3,39a7.63,7.63,0,0,1-2.57-1.34,7.85,7.85,0,0,1-2-2.27,8.68,8.68,0,0,1-1-3.28h23.43a3.88,3.88,0,0,1,.06-.7,4.6,4.6,0,0,1,.07-.69V29.9A20.08,20.08,0,0,0,138.26,23.43Zm-22.09,2.72A8,8,0,0,1,119,21.91a7.61,7.61,0,0,1,4.7-1.53A8.47,8.47,0,0,1,127,21a7.27,7.27,0,0,1,2.28,1.46,6.33,6.33,0,0,1,1.4,1.91,5.25,5.25,0,0,1,.54,1.83Z"></path><path class="cls-2" d="M180.24,37.52a5.5,5.5,0,0,1-1.21.61,5.29,5.29,0,0,1-1.71.21,3.19,3.19,0,0,1-2.54-1,3.25,3.25,0,0,1-.86-1.55,8.48,8.48,0,0,1-.22-2V21.71h7.62V14.6H173.7V5.08h-8.32V14.6H153.45V5.08h-8.32V14.6h-5.45v7.11h5.45V35.36c0,3.52,1,6.23,3,8.13a9,9,0,0,0,3.14,2,11.67,11.67,0,0,0,4.22.73,18.92,18.92,0,0,0,2.7-.16,12.09,12.09,0,0,0,2.38-.61l-.58-7.8a12.7,12.7,0,0,1-1.38.51,5.38,5.38,0,0,1-1.54.18,3.36,3.36,0,0,1-3.39-2.56,8.48,8.48,0,0,1-.22-2V21.71h11.93V35.36q0,5.28,3,8.13a8.91,8.91,0,0,0,3.14,2,11.72,11.72,0,0,0,4.23.73,18.49,18.49,0,0,0,3.71-.35,13.33,13.33,0,0,0,3.14-1Z"></path><path class="cls-2" d="M203.41,14.6l-7.55,18.86h-.45L187.54,14.6h-9.46l3.15,7.11,9.93,22.47-4.95,10.9h8.87l17.6-40.48Z"></path><path class="cls-2" d="M241.32,23.49a15.89,15.89,0,0,0-3.43-5.24,16.07,16.07,0,0,0-5.21-3.43,18.37,18.37,0,0,0-13.27,0,16.07,16.07,0,0,0-5.21,3.43,15.89,15.89,0,0,0-3.43,5.24,17.67,17.67,0,0,0-1.24,6.67,17.62,17.62,0,0,0,1.24,6.66,15.31,15.31,0,0,0,8.64,8.67,18.51,18.51,0,0,0,13.27,0,15.31,15.31,0,0,0,8.64-8.67,17.62,17.62,0,0,0,1.24-6.66A17.67,17.67,0,0,0,241.32,23.49ZM233.57,33.9a8.36,8.36,0,0,1-1.81,2.79,7.82,7.82,0,0,1-2.63,1.75,8.18,8.18,0,0,1-6.2,0,7.66,7.66,0,0,1-2.59-1.75,8.23,8.23,0,0,1-1.82-2.79,9.94,9.94,0,0,1-.66-3.74,10,10,0,0,1,.66-3.75,8.37,8.37,0,0,1,1.82-2.8,7.93,7.93,0,0,1,2.59-1.74,8.16,8.16,0,0,1,8.83,1.74,8.51,8.51,0,0,1,1.81,2.8,10.8,10.8,0,0,1,0,7.49Z"></path><path class="cls-2" d="M58.5,50.39H0V7A7,7,0,0,1,7,0H58.5a7,7,0,0,1,7,7V43.39A7,7,0,0,1,58.5,50.39Z"></path><polygon class="cls-2" points="0 47.18 0 60.02 14.84 47.18 0 47.18"></polygon><path class="cls-3" d="M45.2,25.19a14.3,14.3,0,0,1-24.89,0H15.76a18.4,18.4,0,0,0,34,0Z"></path></g></g></svg>